<svg xmlns="http://www.w3.org/2000/svg" xmlns:xlink="http://www.w3.org/1999/xlink" width="192" zoomAndPan="magnify" viewBox="0 0 144 143.999998" height="192" preserveAspectRatio="xMidYMid meet" version="1.0"><defs><clipPath id="2cd474bc8c"><path d="M 72 72 L 144 72 L 144 144 L 72 144 Z M 72 72 " clip-rule="nonzero"/></clipPath><clipPath id="8335e62955"><path d="M 121.5 144 L 94.5 144 C 82.074219 144 72 133.925781 72 121.5 L 72 94.5 C 72 82.074219 82.074219 72 94.5 72 L 121.5 72 C 133.925781 72 144 82.074219 144 94.5 L 144 121.5 C 144 133.925781 133.925781 144 121.5 144 Z M 121.5 144 " clip-rule="nonzero"/></clipPath><clipPath id="11b4c5c587"><path d="M 0 0 L 72 0 L 72 72 L 0 72 Z M 0 0 " clip-rule="nonzero"/></clipPath><clipPath id="3516d084fc"><path d="M 22.5 0 L 49.5 0 C 61.925781 0 72 10.074219 72 22.5 L 72 49.5 C 72 61.925781 61.925781 72 49.5 72 L 22.5 72 C 10.074219 72 0 61.925781 0 49.5 L 0 22.5 C 0 10.074219 10.074219 0 22.5 0 Z M 22.5 0 " clip-rule="nonzero"/></clipPath></defs><rect x="-14.4" width="172.8" fill="#E9C48B" y="-14.4" height="172.799997" fill-opacity="1"/><g clip-path="url(#2cd474bc8c)"><g clip-path="url(#8335e62955)"><path fill="#70C6BE" d="M 144 144 L 72 144 L 72 72 L 144 72 Z M 144 144 " fill-opacity="1" fill-rule="nonzero"/></g></g><path fill="#70C6BE" d="M 144 144 L 72 144 L 72 96 L 144 96 Z M 144 144 " fill-opacity="1" fill-rule="nonzero"/><path fill="#70C6BE" d="M 96 144 L 96 72 L 144 72 L 144 144 Z M 96 144 " fill-opacity="1" fill-rule="nonzero"/><g clip-path="url(#11b4c5c587)"><g clip-path="url(#3516d084fc)"><path fill="#70C6BE" d="M 0 0 L 72 0 L 72 72 L 0 72 Z M 0 0 " fill-opacity="1" fill-rule="nonzero"/></g></g><path fill="#70C6BE" d="M 0 0 L 72 0 L 72 48 L 0 48 Z M 0 0 " fill-opacity="1" fill-rule="nonzero"/><path fill="#70C6BE" d="M 48 0 L 48 72 L 0 72 L 0 0 Z M 48 0 " fill-opacity="1" fill-rule="nonzero"/></svg>