<svg xmlns="http://www.w3.org/2000/svg" xmlns:xlink="http://www.w3.org/1999/xlink" width="192" zoomAndPan="magnify" viewBox="0 0 144 143.999998" height="192" preserveAspectRatio="xMidYMid meet" version="1.0"><defs><clipPath id="5eb2ec8a0f"><path d="M 0 0 L 72 0 L 72 72 L 0 72 Z M 0 0 " clip-rule="nonzero"/></clipPath><clipPath id="2c6819d11a"><path d="M 36 0 C 16.117188 0 0 16.117188 0 36 C 0 55.882812 16.117188 72 36 72 C 55.882812 72 72 55.882812 72 36 C 72 16.117188 55.882812 0 36 0 Z M 36 0 " clip-rule="nonzero"/></clipPath><clipPath id="c2ce336452"><path d="M 72 72 L 144 72 L 144 144 L 72 144 Z M 72 72 " clip-rule="nonzero"/></clipPath><clipPath id="6ba85d1b5f"><path d="M 108 144 C 127.882812 144 144 127.882812 144 108 C 144 88.117188 127.882812 72 108 72 C 88.117188 72 72 88.117188 72 108 C 72 127.882812 88.117188 144 108 144 Z M 108 144 " clip-rule="nonzero"/></clipPath></defs><rect x="-14.4" width="172.8" fill="#E9C48B" y="-14.4" height="172.799997" fill-opacity="1"/><g clip-path="url(#5eb2ec8a0f)"><g clip-path="url(#2c6819d11a)"><path fill="#70C6BE" d="M 0 0 L 72 0 L 72 72 L 0 72 Z M 0 0 " fill-opacity="1" fill-rule="nonzero"/></g></g><path fill="#70C6BE" d="M 0 0 L 72 0 L 72 36 L 0 36 Z M 0 0 " fill-opacity="1" fill-rule="nonzero"/><path fill="#70C6BE" d="M 36 0 L 36 72 L 0 72 L 0 0 Z M 36 0 " fill-opacity="1" fill-rule="nonzero"/><g clip-path="url(#c2ce336452)"><g clip-path="url(#6ba85d1b5f)"><path fill="#70C6BE" d="M 144 144 L 72 144 L 72 72 L 144 72 Z M 144 144 " fill-opacity="1" fill-rule="nonzero"/></g></g><path fill="#70C6BE" d="M 144 144 L 72 144 L 72 108 L 144 108 Z M 144 144 " fill-opacity="1" fill-rule="nonzero"/><path fill="#70C6BE" d="M 108 144 L 108 72 L 144 72 L 144 144 Z M 108 144 " fill-opacity="1" fill-rule="nonzero"/></svg>